<svg id="Capa_1" enable-background="new 0 0 512 512" height="512" viewBox="0 0 512 512" width="512" xmlns="http://www.w3.org/2000/svg"><g><g><g><path d="m256 512c-141.557 0-256-114.36-256-256 0-141.555 114.361-256 256-256 141.558 0 256 114.36 256 256 0 141.556-114.36 256-256 256z" fill="#7fe881"/></g></g><path d="m512 256c0-141.64-114.442-256-256-256v512c141.64 0 256-114.444 256-256z" fill="#1fbf66"/><g><g><g><g><g><path d="m301 406h-90v-105h-105v-90h105v-105h90v105h105v90h-105z" fill="#f0f7ff"/></g></g></g></g></g><path d="m301 106h-45v300h45v-105h105v-90h-105z" fill="#dfe7f4"/></g></svg>