<?xml version="1.0"?>
<svg xmlns="http://www.w3.org/2000/svg" xmlns:xlink="http://www.w3.org/1999/xlink" xmlns:svgjs="http://svgjs.com/svgjs" version="1.1" width="512" height="512" x="0" y="0" viewBox="0 0 512 512" style="enable-background:new 0 0 512 512" xml:space="preserve" class=""><g><g xmlns="http://www.w3.org/2000/svg"><path d="m89.978 89.978h332.043v332.043h-332.043z" fill="#fff5f5" transform="matrix(.707 -.707 .707 .707 -106.039 256)" data-original="#fff5f5" style="" class=""/><path d="m490.79 256-234.79 234.79v-469.58z" fill="#e4e4ed" data-original="#e4e4ed" style="" class=""/><path d="m140.671 140.671h230.658v230.658h-230.658z" fill="#43aa8b" transform="matrix(.707 -.707 .707 .707 -106.039 256)" data-original="#ffe51b" style="" class=""/><path d="m419.1 256-163.1 163.1v-326.2z" fill="#34836c" data-original="#fec000" style="" class=""/><path d="m256 0-256 256 256 256 256-256zm-213.58 256 213.58-213.58 213.58 213.58-213.58 213.58z" fill="#4e5166" data-original="#4e5166" style="" class=""/><path d="m512 256-256 256v-42.42l213.58-213.58-213.58-213.58v-42.42z" fill="#393f4d" data-original="#393f4d" style="" class=""/></g></g></svg>
